<?xml version="1.0" encoding="utf-8"?>
<!-- Generator: Adobe Illustrator 19.1.0, SVG Export Plug-In . SVG Version: 6.00 Build 0)  -->
<svg version="1.1" id="Layer_1" xmlns="http://www.w3.org/2000/svg" xmlns:xlink="http://www.w3.org/1999/xlink" x="0px" y="0px"
	 viewBox="0 0 200 200" enable-background="new 0 0 200 200" xml:space="preserve">
<circle opacity="0.54" fill-rule="evenodd" clip-rule="evenodd" fill="#F9F9FA" cx="100.3" cy="97.6" r="15.1"/>
<path opacity="0.62" fill-rule="evenodd" clip-rule="evenodd" fill="#F9F9FA" d="M71,117.3h8.5c1.8-1.3,3-3.5,3-5.9
	c0-4-3.3-7.3-7.3-7.3c-4,0-7.3,3.3-7.3,7.3C68,113.9,69.2,116,71,117.3z"/>
<path opacity="0.66" fill-rule="evenodd" clip-rule="evenodd" fill="#072B41" d="M116,117.3h13.1c2-1.8,3.3-4.5,3.3-7.4
	c0-5.5-4.4-9.9-9.9-9.9c-5.5,0-9.9,4.4-9.9,9.9C112.7,112.9,114,115.5,116,117.3z"/>
<path opacity="0.71" fill-rule="evenodd" clip-rule="evenodd" fill="#072B41" d="M78.9,117.3h19.7c3.2-2.8,5.2-6.8,5.2-11.4
	c0-8.3-6.7-15.1-15.1-15.1c-8.3,0-15.1,6.7-15.1,15.1C73.7,110.5,75.7,114.6,78.9,117.3z"/>
<g opacity="0.85">
	<rect x="52.6" y="101.8" fill="#072B41" width="2.5" height="2.5"/>
	<rect x="57.6" y="101.8" fill="#072B41" width="2.5" height="2.5"/>
	<rect x="62.5" y="101.8" fill="#072B41" width="2.5" height="2.5"/>
	<rect x="37.3" y="101.8" fill="#072B41" width="2.5" height="2.5"/>
	<rect x="42.3" y="101.8" fill="#072B41" width="2.5" height="2.5"/>
	<rect x="47.3" y="101.8" fill="#072B41" width="2.5" height="2.5"/>
	<rect x="67.4" y="101.8" fill="#072B41" width="2.5" height="2.5"/>
</g>
<g opacity="0.4">
	
		<rect x="71.7" y="88.2" transform="matrix(-0.7067 0.7075 -0.7075 -0.7067 187.7047 101.0604)" fill="#072B41" width="2.5" height="2.5"/>
	
		<rect x="68.1" y="84.7" transform="matrix(-0.7071 0.7071 -0.7071 -0.7071 179.1831 97.5934)" fill="#072B41" width="2.5" height="2.5"/>
	
		<rect x="64.6" y="81.1" transform="matrix(-0.7067 0.7075 -0.7075 -0.7067 170.6827 94.0078)" fill="#072B41" width="2.5" height="2.5"/>
	
		<rect x="61.2" y="77.7" transform="matrix(-0.7073 0.7069 -0.7069 -0.7073 162.4401 90.6819)" fill="#072B41" width="2.5" height="2.5"/>
	
		<rect x="57.7" y="74.2" transform="matrix(-0.7071 0.7071 -0.7071 -0.7071 153.9329 87.1245)" fill="#072B41" width="2.5" height="2.5"/>
	<polygon fill="#072B41" points="53.6,71.9 55.4,70.2 57.2,71.9 55.4,73.7 	"/>
	
		<rect x="50.6" y="67.1" transform="matrix(-0.7071 0.7071 -0.7071 -0.7071 136.9086 80.0781)" fill="#072B41" width="2.5" height="2.5"/>
	
		<rect x="47.1" y="63.6" transform="matrix(-0.7075 0.7067 -0.7067 -0.7075 128.3904 76.5996)" fill="#072B41" width="2.5" height="2.5"/>
</g>
<g opacity="0.7">
	<polygon fill="#072B41" points="99,155.3 101.5,155.3 101.5,157.8 99,157.8 	"/>
	<rect x="99" y="150.3" fill="#072B41" width="2.5" height="2.5"/>
	<rect x="99" y="145.3" fill="#072B41" width="2.5" height="2.5"/>
	<rect x="99" y="140.4" fill="#072B41" width="2.5" height="2.5"/>
	<rect x="99" y="135.4" fill="#072B41" width="2.5" height="2.5"/>
	<rect x="99" y="130.4" fill="#072B41" width="2.5" height="2.5"/>
	<rect x="99" y="125.6" fill="#072B41" width="2.5" height="2.5"/>
	<rect x="99" y="120.6" fill="#072B41" width="2.5" height="2.5"/>
</g>
<g>
	<rect x="99" y="77.5" fill="#072B41" width="2.5" height="2.5"/>
	<rect x="99" y="72.5" fill="#072B41" width="2.5" height="2.5"/>
	<rect x="99" y="67.5" fill="#072B41" width="2.5" height="2.5"/>
	<rect x="99" y="62.7" fill="#072B41" width="2.5" height="2.5"/>
	<rect x="99" y="57.7" fill="#072B41" width="2.5" height="2.5"/>
	<rect x="99" y="52.7" fill="#072B41" width="2.5" height="2.5"/>
	<rect x="99" y="47.7" fill="#072B41" width="2.5" height="2.5"/>
	<rect x="99" y="42.7" fill="#072B41" width="2.5" height="2.5"/>
</g>
<g opacity="0.85">
	
		<rect x="147.2" y="64.3" transform="matrix(0.7066 0.7076 -0.7076 0.7066 90.2753 -85.9228)" fill="#072B41" width="3.2" height="3.2"/>
	
		<rect x="142.7" y="68.8" transform="matrix(0.7071 0.7071 -0.7071 0.7071 92.0425 -81.3771)" fill="#072B41" width="3.2" height="3.2"/>
	
		<rect x="138.1" y="73.3" transform="matrix(0.7074 0.7068 -0.7068 0.7074 93.8453 -76.8456)" fill="#072B41" width="3.2" height="3.2"/>
	
		<rect x="133.6" y="77.8" transform="matrix(0.7071 0.7071 -0.7071 0.7071 95.7878 -72.3562)" fill="#072B41" width="3.2" height="3.2"/>
	
		<rect x="129.1" y="82.4" transform="matrix(0.7074 0.7068 -0.7068 0.7074 97.582 -67.8295)" fill="#072B41" width="3.2" height="3.2"/>
	
		<rect x="124.8" y="86.7" transform="matrix(0.7074 0.7068 -0.7068 0.7074 99.3886 -63.4704)" fill="#072B41" width="3.2" height="3.2"/>
</g>
<g>
	
		<rect x="65.1" y="119.7" transform="matrix(0.7067 0.7075 -0.7075 0.7067 105.3626 -11.6325)" fill="#072B41" width="3.2" height="3.2"/>
	
		<rect x="60.8" y="124" transform="matrix(0.707 0.7073 -0.7073 0.707 107.1185 -7.2838)" fill="#072B41" width="3.2" height="3.2"/>
	<polygon fill="#072B41" points="57.8,132.4 55.6,130.1 57.8,127.9 60.1,130.1 	"/>
	
		<rect x="51.7" y="133" transform="matrix(0.7076 0.7066 -0.7066 0.7076 110.7371 1.6896)" fill="#072B41" width="3.2" height="3.2"/>
	
		<rect x="47.2" y="137.6" transform="matrix(0.7068 0.7074 -0.7074 0.7068 112.7461 6.2647)" fill="#072B41" width="3.2" height="3.2"/>
</g>
<g opacity="0.4">
	<rect x="158.1" y="101.5" fill="#072B41" width="3.2" height="3.2"/>
	<rect x="151.9" y="101.5" fill="#072B41" width="3.2" height="3.2"/>
	<rect x="145.5" y="101.5" fill="#072B41" width="3.2" height="3.2"/>
	<rect x="139.1" y="101.5" fill="#072B41" width="3.2" height="3.2"/>
	<rect x="132.8" y="101.5" fill="#072B41" width="3.2" height="3.2"/>
</g>
<rect x="31.3" y="48.4" transform="matrix(-0.7071 0.7071 -0.7071 -0.7071 107.6692 68.78)" opacity="0.4" fill="#072B41" width="16.6" height="16.6"/>
<rect x="92" y="24" fill="#072B41" width="16.6" height="16.6"/>
<rect x="149.7" y="48.4" transform="matrix(-0.707 -0.7072 0.7072 -0.707 229.5633 208.4854)" opacity="0.85" fill="#072B41" width="16.6" height="16.6"/>
<g opacity="0.85">
	
		<rect x="152.3" y="143.1" transform="matrix(0.7071 -0.7071 0.7071 0.7071 -57.2519 151.2327)" fill="#072B41" width="3.2" height="3.2"/>
	
		<rect x="147.8" y="138.6" transform="matrix(0.7066 -0.7076 0.7076 0.7066 -55.3799 146.8556)" fill="#072B41" width="3.2" height="3.2"/>
	<polygon fill="#072B41" points="144.9,133.5 142.7,135.7 144.9,138 147.2,135.7 	"/>
	
		<rect x="138.8" y="129.6" transform="matrix(0.7074 -0.7068 0.7068 0.7074 -51.6503 137.6177)" fill="#072B41" width="3.2" height="3.2"/>
	
		<rect x="134.3" y="125.1" transform="matrix(0.7079 -0.7064 0.7064 0.7079 -49.7857 132.9953)" fill="#072B41" width="3.2" height="3.2"/>
	
		<rect x="129.8" y="120.6" transform="matrix(0.7068 -0.7074 0.7074 0.7068 -47.9086 128.7594)" fill="#072B41" width="3.2" height="3.2"/>
</g>
<polygon opacity="0.85" fill="#072B41" points="163,165.1 174.7,153.4 163,141.7 151.3,153.4 "/>
<rect x="31.3" y="139.1" transform="matrix(-0.7072 0.7071 -0.7071 -0.7072 171.7668 223.5502)" fill="#072B41" width="16.6" height="16.6"/>
<polygon opacity="0.4" fill="#072B41" points="180.4,94.8 180.4,111.4 163.8,111.4 163.8,94.8 "/>
<polygon opacity="0.85" fill="#072B41" points="34.7,94.8 34.7,111.4 18.1,111.4 18.1,94.8 "/>
<rect x="92" y="159.1" opacity="0.7" fill="#072B41" width="16.6" height="16.6"/>
<rect x="74.7" y="91.5" transform="matrix(-0.7067 0.7075 -0.7075 -0.7067 195.2416 104.5734)" opacity="0.4" fill="#072B41" width="2.5" height="2.5"/>
<rect x="120.3" y="91" transform="matrix(0.7068 0.7074 -0.7074 0.7068 101.2054 -59.0631)" opacity="0.85" fill="#072B41" width="3.2" height="3.2"/>
<path fill-rule="evenodd" clip-rule="evenodd" fill="#072B41" d="M98.5,117.3h23.1c3.1-3,5-7.2,5-11.9c0-9.2-7.4-16.6-16.6-16.6
	s-16.6,7.4-16.6,16.6C93.5,110.1,95.4,114.3,98.5,117.3z"/>
<g>
	<path opacity="0.54" fill-rule="evenodd" clip-rule="evenodd" fill="#0E8CCD" d="M115.5,97.7c0,8.4-6.8,15.2-15.2,15.2
		c-8.4,0-15.2-6.8-15.2-15.2c0-8.4,6.8-15.2,15.2-15.2C108.7,82.5,115.5,89.3,115.5,97.7z"/>
	<path fill-rule="evenodd" clip-rule="evenodd" fill="#0E8CCD" d="M98.6,117.6h22.9c3.2-3,5.2-7.3,5.2-12.1
		c0-9.2-7.5-16.7-16.7-16.7c-9.2,0-16.7,7.5-16.7,16.7C93.4,110.3,95.4,114.6,98.6,117.6z"/>
	<path opacity="0.62" fill-rule="evenodd" clip-rule="evenodd" fill="#0E8CCD" d="M71.1,117.6h8.2c2-1.3,3.2-3.5,3.2-6.1
		c0-4-3.3-7.3-7.3-7.3c-4,0-7.3,3.3-7.3,7.3C67.9,114.1,69.2,116.3,71.1,117.6z"/>
	<path opacity="0.71" fill-rule="evenodd" clip-rule="evenodd" fill="#0E8CCD" d="M79,117.6h19.5c3.3-2.8,5.4-6.9,5.4-11.6
		c0-8.4-6.8-15.1-15.1-15.1c-8.4,0-15.1,6.8-15.1,15.1C73.6,110.7,75.7,114.8,79,117.6z"/>
	<path opacity="0.66" fill-rule="evenodd" clip-rule="evenodd" fill="#0E8CCD" d="M116.3,117.6h12.9c2.1-1.8,3.5-4.5,3.5-7.6
		c0-5.5-4.5-9.9-9.9-9.9c-5.5,0-9.9,4.5-9.9,9.9C112.8,113.1,114.1,115.8,116.3,117.6z"/>
</g>
</svg>
